<svg xmlns="http://www.w3.org/2000/svg" viewBox="0 0 24 24">
  <symbol id="tools" viewBox="0 0 24 24">
    <path stroke="none" d="M0 0h24v24H0z" fill="none"/>
    <path d="M15 6l3 3" />
    <path d="M12 9l3 -3" />
    <path d="M9 12l3 -3" />
    <path d="M6 15l3 -3" />
    <path d="M4 4l6 6m-1 4a3 3 0 0 1 -3 3" />
    <path d="M18 19a3 3 0 0 1 -3 -3l-6 -6" />
    <path d="M4 14l1.5 1.5" />
    <path d="M14 4l1.5 1.5" />
    <path d="M4 20l1.5 1.5" />
    <path d="M20 4l1.5 1.5" />
  </symbol>
</svg>
