<svg xmlns="http://www.w3.org/2000/svg" width="64" height="64" fill="currentColor" class="bi bi-clipboard-check" viewBox="0 0 16 16">
  <path d="M9.5 2a.5.5 0 0 0 .5-.5V1a1 1 0 0 0-1-1h-3a1 1 0 0 0-1 1v.5a.5.5 0 0 0 .5.5h4zM3 2h2.5v-.5A1.5 1.5 0 0 1 7 0h3a1.5 1.5 0 0 1 1.5 1.5V2H13a2 2 0 0 1 2 2v9a2 2 0 0 1-2 2H3a2 2 0 0 1-2-2V4a2 2 0 0 1 2-2zm0 1a1 1 0 0 0-1 1v9a1 1 0 0 0 1 1h10a1 1 0 0 0 1-1V4a1 1 0 0 0-1-1H3zm4.854 6.854-1.293-1.293a.5.5 0 0 0-.708.708L7.5 10.5l4-4a.5.5 0 0 0-.708-.708l-3.646 3.647z"/>
</svg>
