<svg xmlns="http://www.w3.org/2000/svg" width="64" height="64" fill="currentColor" class="bi bi-chat-dots" viewBox="0 0 16 16">
  <path d="M2 2c1.11 0 2.156.373 3 .998A7.97 7.97 0 0 1 8 2c4.418 0 8 3.582 8 8s-3.582 8-8 8a7.97 7.97 0 0 1-2.998-.998A6.978 6.978 0 0 1 2 14a6.978 6.978 0 0 1-.998-2.998A7.97 7.97 0 0 1 2 8c0-1.11.373-2.156.998-3A6.978 6.978 0 0 1 2 2zm2.166 1.666a7.967 7.967 0 0 1 3.636-1.016 5.985 5.985 0 0 0-.88 1.997A7.958 7.958 0 0 1 8 2a6.978 6.978 0 0 1 3 1.016A7.967 7.967 0 0 1 11.334 8c0 4.418-3.582 8-8 8a7.97 7.97 0 0 1-3-.998A6.978 6.978 0 0 1 2 8a6.978 6.978 0 0 1 1.016-3 7.967 7.967 0 0 1 1.15-1.334zm8.318.732a1 1 0 1 0-1.732 1 1 1 0 0 0 1.732-1zM6.5 10.5a1 1 0 1 0 2 0 1 1 0 0 0-2 0zM4 10.5a1 1 0 1 0 2 0 1 1 0 0 0-2 0z"/>
</svg>
