<svg xmlns="http://www.w3.org/2000/svg" width="64" height="64" fill="currentColor" class="bi bi-wrench" viewBox="0 0 16 16">
  <path d="M.102 2.223A1 1 0 0 1 2.223.102l1.682.56a1 1 0 0 1 .494.434L6.44 3.172l.759-.758a1.5 1.5 0 0 1 2.121 0L11.5 4.596l.356-.356a2 2 0 0 0 0-2.828L12.596.66a2 2 0 1 0-2.828 2.828L8.646 4.646 6.904 2.904 4.637 5.171a1 1 0 0 1-.994.26L2.22 4.364a1 1 0 0 1-.887-.887L.102 2.223zM4.22 3.222l-1.682-.56.56 1.682 1.682-.56-.56-1.682z"/>
  <path d="M7.684 5.318l-.933.933L4.121 4.62a1 1 0 0 0-1.415 0l-1.497 1.497a1 1 0 0 0 0 1.415l5.657 5.657a1 1 0 0 0 1.415 0l1.497-1.497a1 1 0 0 0 0-1.415l-1.631-1.63-.933.933 1.63 1.63a.5.5 0 0 1 0 .707l-1.497 1.497a.5.5 0 0 1-.707 0l-5.657-5.657a.5.5 0 0 1 0-.707L5.318 7.684a.5.5 0 0 1 .707 0l1.63 1.63.933-.933-1.63-1.63a1.5 1.5 0 0 0-2.121 0L1.225 6.353a1.5 1.5 0 0 0 0 2.121l5.657 5.657a1.5 1.5 0 0 0 2.121 0l1.497-1.497a1.5 1.5 0 0 0 0-2.121l-1.63-1.63z"/>
</svg>
