<svg xmlns="http://www.w3.org/2000/svg" width="64" height="64" fill="currentColor" class="bi bi-journal-code" viewBox="0 0 16 16">
    <symbol id="icon" viewBox="0 0 24 24">

  <path d="M8 6a.5.5 0 0 1 .5.5v3.791l1.646-1.646a.5.5 0 0 1 .708.708l-2.5 2.5a.5.5 0 0 1-.708 0l-2.5-2.5a.5.5 0 1 1 .708-.708L7.5 10.291V6.5a.5.5 0 0 1 .5-.5zm3.354-1.854-2.5-2.5a.5.5 0 0 0-.708 0l-2.5 2.5a.5.5 0 1 0 .708.708L8 3.207V9.5a.5.5 0 0 0 1 0V3.207l1.646 1.647a.5.5 0 0 0 .708-.708z"/>
  <path d="M3.5 0a2.5 2.5 0 0 0-2.5 2.5v11a2.5 2.5 0 0 0 2.5 2.5h9A2.5 2.5 0 0 0 15 13.5v-11A2.5 2.5 0 0 0 12.5 0h-9zm0 1h9A1.5 1.5 0 0 1 14 2.5v11a1.5 1.5 0 0 1-1.5 1.5h-9A1.5 1.5 0 0 1 2 13.5v-11A1.5 1.5 0 0 1 3.5 1zm0 2a.5.5 0 0 0 0 1h9a.5.5 0 0 0 0-1h-9z"/>
</svg>
